<svg xmlns="http://www.w3.org/2000/svg" xmlns:xlink="http://www.w3.org/1999/xlink" width="540" zoomAndPan="magnify" viewBox="0 0 404.88 73.499998" height="98" preserveAspectRatio="xMidYMid meet" version="1.0"><defs><clipPath id="5136eafdac"><path d="M 1.308594 0 L 403.453125 0 L 403.453125 72.40625 L 1.308594 72.40625 Z M 1.308594 0 " clip-rule="nonzero"/></clipPath><clipPath id="5ecd986bdd"><path d="M 37.511719 0 L 367.367188 0 C 387.363281 0 403.570312 16.207031 403.570312 36.203125 C 403.570312 56.199219 387.363281 72.40625 367.367188 72.40625 L 37.511719 72.40625 C 17.515625 72.40625 1.308594 56.199219 1.308594 36.203125 C 1.308594 16.207031 17.515625 0 37.511719 0 Z M 37.511719 0 " clip-rule="nonzero"/></clipPath><clipPath id="13b3d6f8d8"><path d="M 1.308594 0 L 343.261719 0 L 343.261719 72.40625 L 1.308594 72.40625 Z M 1.308594 0 " clip-rule="nonzero"/></clipPath><clipPath id="4e8a461079"><path d="M 37.511719 0 L 307.027344 0 C 327.023438 0 343.230469 16.207031 343.230469 36.203125 C 343.230469 56.199219 327.023438 72.40625 307.027344 72.40625 L 37.511719 72.40625 C 17.515625 72.40625 1.308594 56.199219 1.308594 36.203125 C 1.308594 16.207031 17.515625 0 37.511719 0 Z M 37.511719 0 " clip-rule="nonzero"/></clipPath></defs><g clip-path="url(#5136eafdac)"><g clip-path="url(#5ecd986bdd)"><path fill="#5271ff" d="M 1.308594 0 L 403.507812 0 L 403.507812 72.40625 L 1.308594 72.40625 Z M 1.308594 0 " fill-opacity="1" fill-rule="nonzero"/></g></g><g clip-path="url(#13b3d6f8d8)"><g clip-path="url(#4e8a461079)"><path fill="#e4007a" d="M 1.308594 0 L 403.507812 0 L 403.507812 72.40625 L 1.308594 72.40625 Z M 1.308594 0 " fill-opacity="1" fill-rule="nonzero"/></g></g></svg>